<mxfile host="app.diagrams.net" modified="2021-08-22T08:35:47.249Z" agent="5.0 (Macintosh; Intel Mac OS X 10_15_7) AppleWebKit/537.36 (KHTML, like Gecko) Chrome/92.0.4515.159 Safari/537.36" etag="Yz64eNgwVCnrr6J1mFS8" version="14.9.8" type="github">
  <diagram id="SACPykCb1NUjOB5aVv_-" name="Page-1">
    <mxGraphModel dx="946" dy="589" grid="1" gridSize="10" guides="1" tooltips="1" connect="1" arrows="1" fold="1" page="1" pageScale="1" pageWidth="827" pageHeight="1169" math="0" shadow="0">
      <root>
        <mxCell id="0" />
        <mxCell id="1" parent="0" />
        <mxCell id="H3HZDkIQD1vvXgPB9P7X-1" value="埋点采集JSSDK" style="shape=parallelogram;perimeter=parallelogramPerimeter;whiteSpace=wrap;html=1;fixedSize=1;" vertex="1" parent="1">
          <mxGeometry x="340" y="50" width="120" height="60" as="geometry" />
        </mxCell>
        <mxCell id="H3HZDkIQD1vvXgPB9P7X-7" value="数据存储处理服务" style="rhombus;whiteSpace=wrap;html=1;" vertex="1" parent="1">
          <mxGeometry x="80" y="420" width="200" height="100" as="geometry" />
        </mxCell>
        <mxCell id="H3HZDkIQD1vvXgPB9P7X-8" value="数据可视化平台" style="shape=cylinder3;whiteSpace=wrap;html=1;boundedLbl=1;backgroundOutline=1;size=15;" vertex="1" parent="1">
          <mxGeometry x="720" y="200" width="100" height="140" as="geometry" />
        </mxCell>
        <mxCell id="H3HZDkIQD1vvXgPB9P7X-9" value="Actor" style="shape=umlActor;verticalLabelPosition=bottom;verticalAlign=top;html=1;outlineConnect=0;" vertex="1" parent="1">
          <mxGeometry x="320" y="30" width="20" height="40" as="geometry" />
        </mxCell>
        <mxCell id="H3HZDkIQD1vvXgPB9P7X-10" value="用户数据" style="swimlane;fontStyle=0;childLayout=stackLayout;horizontal=1;startSize=26;horizontalStack=0;resizeParent=1;resizeParentMax=0;resizeLast=0;collapsible=1;marginBottom=0;" vertex="1" parent="1">
          <mxGeometry x="20" y="360" width="70" height="104" as="geometry" />
        </mxCell>
        <mxCell id="H3HZDkIQD1vvXgPB9P7X-11" value="点击" style="text;strokeColor=none;fillColor=none;align=left;verticalAlign=top;spacingLeft=4;spacingRight=4;overflow=hidden;rotatable=0;points=[[0,0.5],[1,0.5]];portConstraint=eastwest;" vertex="1" parent="H3HZDkIQD1vvXgPB9P7X-10">
          <mxGeometry y="26" width="70" height="26" as="geometry" />
        </mxCell>
        <mxCell id="H3HZDkIQD1vvXgPB9P7X-12" value="浏览" style="text;strokeColor=none;fillColor=none;align=left;verticalAlign=top;spacingLeft=4;spacingRight=4;overflow=hidden;rotatable=0;points=[[0,0.5],[1,0.5]];portConstraint=eastwest;" vertex="1" parent="H3HZDkIQD1vvXgPB9P7X-10">
          <mxGeometry y="52" width="70" height="26" as="geometry" />
        </mxCell>
        <mxCell id="H3HZDkIQD1vvXgPB9P7X-13" value="退出" style="text;strokeColor=none;fillColor=none;align=left;verticalAlign=top;spacingLeft=4;spacingRight=4;overflow=hidden;rotatable=0;points=[[0,0.5],[1,0.5]];portConstraint=eastwest;" vertex="1" parent="H3HZDkIQD1vvXgPB9P7X-10">
          <mxGeometry y="78" width="70" height="26" as="geometry" />
        </mxCell>
        <mxCell id="H3HZDkIQD1vvXgPB9P7X-2" value="" style="endArrow=none;dashed=1;html=1;dashPattern=1 3;strokeWidth=2;" edge="1" parent="1">
          <mxGeometry width="50" height="50" relative="1" as="geometry">
            <mxPoint x="10" y="270" as="sourcePoint" />
            <mxPoint x="770" y="270" as="targetPoint" />
          </mxGeometry>
        </mxCell>
        <mxCell id="H3HZDkIQD1vvXgPB9P7X-18" value="记录" style="endArrow=classic;html=1;entryX=0.535;entryY=0.04;entryDx=0;entryDy=0;entryPerimeter=0;" edge="1" parent="1" source="H3HZDkIQD1vvXgPB9P7X-1" target="H3HZDkIQD1vvXgPB9P7X-7">
          <mxGeometry relative="1" as="geometry">
            <mxPoint x="350" y="100" as="sourcePoint" />
            <mxPoint x="450" y="300" as="targetPoint" />
          </mxGeometry>
        </mxCell>
        <mxCell id="H3HZDkIQD1vvXgPB9P7X-19" value="记录" style="edgeLabel;resizable=0;html=1;align=center;verticalAlign=middle;" connectable="0" vertex="1" parent="H3HZDkIQD1vvXgPB9P7X-18">
          <mxGeometry relative="1" as="geometry" />
        </mxCell>
        <mxCell id="H3HZDkIQD1vvXgPB9P7X-22" value="" style="endArrow=classic;html=1;exitX=1;exitY=0.5;exitDx=0;exitDy=0;entryX=0;entryY=1;entryDx=0;entryDy=-15;entryPerimeter=0;" edge="1" parent="1" source="H3HZDkIQD1vvXgPB9P7X-7" target="H3HZDkIQD1vvXgPB9P7X-8">
          <mxGeometry relative="1" as="geometry">
            <mxPoint x="290" y="300" as="sourcePoint" />
            <mxPoint x="450" y="300" as="targetPoint" />
          </mxGeometry>
        </mxCell>
        <mxCell id="H3HZDkIQD1vvXgPB9P7X-23" value="处理" style="edgeLabel;resizable=0;html=1;align=center;verticalAlign=middle;" connectable="0" vertex="1" parent="H3HZDkIQD1vvXgPB9P7X-22">
          <mxGeometry relative="1" as="geometry" />
        </mxCell>
        <mxCell id="H3HZDkIQD1vvXgPB9P7X-27" value="关联分析" style="endArrow=classic;startArrow=classic;html=1;entryX=0.808;entryY=0.983;entryDx=0;entryDy=0;entryPerimeter=0;exitX=0;exitY=0;exitDx=0;exitDy=15;exitPerimeter=0;" edge="1" parent="1" source="H3HZDkIQD1vvXgPB9P7X-8" target="H3HZDkIQD1vvXgPB9P7X-1">
          <mxGeometry width="50" height="50" relative="1" as="geometry">
            <mxPoint x="350" y="320" as="sourcePoint" />
            <mxPoint x="400" y="270" as="targetPoint" />
          </mxGeometry>
        </mxCell>
      </root>
    </mxGraphModel>
  </diagram>
</mxfile>
